solid ascii
  facet normal 7.071068e-001 3.651406e-016 7.071068e-001
    outer loop
      vertex   3.750000e-001 7.244657e-001 2.986862e+000
      vertex   3.000000e-001 7.677670e-001 3.061862e+000
      vertex   3.750000e-001 -2.724466e+000 2.986862e+000
    endloop
  endfacet
  facet normal 7.071068e-001 0.000000e+000 7.071068e-001
    outer loop
      vertex   3.750000e-001 -2.724466e+000 2.986862e+000
      vertex   3.000000e-001 7.677670e-001 3.061862e+000
      vertex   3.000000e-001 -2.767767e+000 3.061862e+000
    endloop
  endfacet
  facet normal 7.071068e-001 6.123724e-001 3.535534e-001
    outer loop
      vertex   3.750000e-001 7.244657e-001 2.986862e+000
      vertex   3.750000e-001 2.448931e+000 -1.387779e-015
      vertex   3.000000e-001 7.677670e-001 3.061862e+000
    endloop
  endfacet
  facet normal 7.071068e-001 6.123724e-001 3.535534e-001
    outer loop
      vertex   3.000000e-001 7.677670e-001 3.061862e+000
      vertex   3.750000e-001 2.448931e+000 -1.387779e-015
      vertex   3.000000e-001 2.535534e+000 -3.608225e-015
    endloop
  endfacet
  facet normal 7.071068e-001 6.123724e-001 -3.535534e-001
    outer loop
      vertex   3.750000e-001 2.448931e+000 -1.387779e-015
      vertex   3.750000e-001 7.244657e-001 -2.986862e+000
      vertex   3.000000e-001 2.535534e+000 -3.608225e-015
    endloop
  endfacet
  facet normal 7.071068e-001 6.123724e-001 -3.535534e-001
    outer loop
      vertex   3.000000e-001 2.535534e+000 -3.608225e-015
      vertex   3.750000e-001 7.244657e-001 -2.986862e+000
      vertex   3.000000e-001 7.677670e-001 -3.061862e+000
    endloop
  endfacet
  facet normal 7.071068e-001 -5.453399e-016 -7.071068e-001
    outer loop
      vertex   3.750000e-001 -2.724466e+000 -2.986862e+000
      vertex   3.000000e-001 -2.767767e+000 -3.061862e+000
      vertex   3.750000e-001 7.244657e-001 -2.986862e+000
    endloop
  endfacet
  facet normal 7.071068e-001 -4.440892e-016 -7.071068e-001
    outer loop
      vertex   3.750000e-001 7.244657e-001 -2.986862e+000
      vertex   3.000000e-001 -2.767767e+000 -3.061862e+000
      vertex   3.000000e-001 7.677670e-001 -3.061862e+000
    endloop
  endfacet
  facet normal 7.071068e-001 -6.123724e-001 -3.535534e-001
    outer loop
      vertex   3.000000e-001 -4.535534e+000 1.942890e-015
      vertex   3.000000e-001 -2.767767e+000 -3.061862e+000
      vertex   3.750000e-001 -4.448931e+000 1.942890e-015
    endloop
  endfacet
  facet normal 7.071068e-001 -6.123724e-001 -3.535534e-001
    outer loop
      vertex   3.750000e-001 -4.448931e+000 1.942890e-015
      vertex   3.000000e-001 -2.767767e+000 -3.061862e+000
      vertex   3.750000e-001 -2.724466e+000 -2.986862e+000
    endloop
  endfacet
  facet normal 7.071068e-001 -6.123724e-001 3.535534e-001
    outer loop
      vertex   3.000000e-001 -2.767767e+000 3.061862e+000
      vertex   3.000000e-001 -4.535534e+000 1.942890e-015
      vertex   3.750000e-001 -2.724466e+000 2.986862e+000
    endloop
  endfacet
  facet normal 7.071068e-001 -6.123724e-001 3.535534e-001
    outer loop
      vertex   3.750000e-001 -2.724466e+000 2.986862e+000
      vertex   3.000000e-001 -4.535534e+000 1.942890e-015
      vertex   3.750000e-001 -4.448931e+000 1.942890e-015
    endloop
  endfacet
  facet normal 0.000000e+000 -8.660254e-001 -5.000000e-001
    outer loop
      vertex   3.000000e-001 -2.767767e+000 -3.061862e+000
      vertex   3.000000e-001 -4.535534e+000 1.942890e-015
      vertex   -3.750000e-001 -2.767767e+000 -3.061862e+000
    endloop
  endfacet
  facet normal -0.000000e+000 -8.660254e-001 -5.000000e-001
    outer loop
      vertex   -3.750000e-001 -2.767767e+000 -3.061862e+000
      vertex   3.000000e-001 -4.535534e+000 1.942890e-015
      vertex   -3.750000e-001 -4.535534e+000 1.942890e-015
    endloop
  endfacet
  facet normal 0.000000e+000 -8.660254e-001 5.000000e-001
    outer loop
      vertex   3.000000e-001 -4.535534e+000 1.942890e-015
      vertex   3.000000e-001 -2.767767e+000 3.061862e+000
      vertex   -3.750000e-001 -4.535534e+000 1.942890e-015
    endloop
  endfacet
  facet normal 0.000000e+000 -8.660254e-001 5.000000e-001
    outer loop
      vertex   -3.750000e-001 -4.535534e+000 1.942890e-015
      vertex   3.000000e-001 -2.767767e+000 3.061862e+000
      vertex   -3.750000e-001 -2.767767e+000 3.061862e+000
    endloop
  endfacet
  facet normal 0.000000e+000 -0.000000e+000 1.000000e+000
    outer loop
      vertex   3.000000e-001 -2.767767e+000 3.061862e+000
      vertex   3.000000e-001 7.677670e-001 3.061862e+000
      vertex   -3.750000e-001 -2.767767e+000 3.061862e+000
    endloop
  endfacet
  facet normal 0.000000e+000 -0.000000e+000 1.000000e+000
    outer loop
      vertex   -3.750000e-001 -2.767767e+000 3.061862e+000
      vertex   3.000000e-001 7.677670e-001 3.061862e+000
      vertex   -3.750000e-001 7.677670e-001 3.061862e+000
    endloop
  endfacet
  facet normal 1.000000e+000 0.000000e+000 0.000000e+000
    outer loop
      vertex   3.750000e-001 2.448931e+000 -1.387779e-015
      vertex   3.750000e-001 7.244657e-001 2.986862e+000
      vertex   3.750000e-001 7.244657e-001 -2.986862e+000
    endloop
  endfacet
  facet normal 1.000000e+000 0.000000e+000 -0.000000e+000
    outer loop
      vertex   3.750000e-001 7.244657e-001 -2.986862e+000
      vertex   3.750000e-001 7.244657e-001 2.986862e+000
      vertex   3.750000e-001 -2.724466e+000 2.986862e+000
    endloop
  endfacet
  facet normal 1.000000e+000 0.000000e+000 -0.000000e+000
    outer loop
      vertex   3.750000e-001 -2.724466e+000 -2.986862e+000
      vertex   3.750000e-001 -2.724466e+000 2.986862e+000
      vertex   3.750000e-001 -4.448931e+000 1.942890e-015
    endloop
  endfacet
  facet normal 1.000000e+000 -0.000000e+000 -0.000000e+000
    outer loop
      vertex   3.750000e-001 -2.724466e+000 -2.986862e+000
      vertex   3.750000e-001 7.244657e-001 -2.986862e+000
      vertex   3.750000e-001 -2.724466e+000 2.986862e+000
    endloop
  endfacet
  facet normal 0.000000e+000 8.660254e-001 -5.000000e-001
    outer loop
      vertex   3.000000e-001 2.535534e+000 -3.608225e-015
      vertex   3.000000e-001 7.677670e-001 -3.061862e+000
      vertex   -3.750000e-001 2.535534e+000 -3.608225e-015
    endloop
  endfacet
  facet normal 0.000000e+000 8.660254e-001 -5.000000e-001
    outer loop
      vertex   -3.750000e-001 2.535534e+000 -3.608225e-015
      vertex   3.000000e-001 7.677670e-001 -3.061862e+000
      vertex   -3.750000e-001 7.677670e-001 -3.061862e+000
    endloop
  endfacet
  facet normal 0.000000e+000 -6.280370e-016 -1.000000e+000
    outer loop
      vertex   3.000000e-001 7.677670e-001 -3.061862e+000
      vertex   3.000000e-001 -2.767767e+000 -3.061862e+000
      vertex   -3.750000e-001 7.677670e-001 -3.061862e+000
    endloop
  endfacet
  facet normal -0.000000e+000 -6.280370e-016 -1.000000e+000
    outer loop
      vertex   -3.750000e-001 7.677670e-001 -3.061862e+000
      vertex   3.000000e-001 -2.767767e+000 -3.061862e+000
      vertex   -3.750000e-001 -2.767767e+000 -3.061862e+000
    endloop
  endfacet
  facet normal 0.000000e+000 8.660254e-001 5.000000e-001
    outer loop
      vertex   3.000000e-001 7.677670e-001 3.061862e+000
      vertex   3.000000e-001 2.535534e+000 -3.608225e-015
      vertex   -3.750000e-001 7.677670e-001 3.061862e+000
    endloop
  endfacet
  facet normal 0.000000e+000 8.660254e-001 5.000000e-001
    outer loop
      vertex   -3.750000e-001 7.677670e-001 3.061862e+000
      vertex   3.000000e-001 2.535534e+000 -3.608225e-015
      vertex   -3.750000e-001 2.535534e+000 -3.608225e-015
    endloop
  endfacet
  facet normal -1.000000e+000 -6.280370e-016 -3.625973e-016
    outer loop
      vertex   -3.750000e-001 2.535534e+000 -3.608225e-015
      vertex   -3.750000e-001 7.677670e-001 -3.061862e+000
      vertex   -3.750000e-001 7.677670e-001 3.061862e+000
    endloop
  endfacet
  facet normal -1.000000e+000 0.000000e+000 -3.625973e-016
    outer loop
      vertex   -3.750000e-001 7.677670e-001 3.061862e+000
      vertex   -3.750000e-001 7.677670e-001 -3.061862e+000
      vertex   -3.750000e-001 -2.767767e+000 3.061862e+000
    endloop
  endfacet
  facet normal -1.000000e+000 -2.277245e-031 -3.625973e-016
    outer loop
      vertex   -3.750000e-001 -2.767767e+000 3.061862e+000
      vertex   -3.750000e-001 7.677670e-001 -3.061862e+000
      vertex   -3.750000e-001 -2.767767e+000 -3.061862e+000
    endloop
  endfacet
  facet normal -1.000000e+000 6.280370e-016 -3.625973e-016
    outer loop
      vertex   -3.750000e-001 -4.535534e+000 1.942890e-015
      vertex   -3.750000e-001 -2.767767e+000 3.061862e+000
      vertex   -3.750000e-001 -2.767767e+000 -3.061862e+000
    endloop
  endfacet
endsolid
